<svg xmlns:xlink="http://www.w3.org/1999/xlink"  xmlns="http://www.w3.org/2000/svg" id="Calque_1" viewBox="0 0 396.85 121.89"><path d="m26.64,43.62v4.38H6.99v9.98h13.96v4.33H6.99v12.05h19.66v4.38H1.9v-35.13h24.75Z" fill="#1a1a18" stroke-width="0"/><path d="m62.22,43.62v23.74c0,9.93-5.29,12.1-14.46,12.1s-14.46-2.17-14.46-12.1v-23.74h5.19v23.23c0,6.4,2.77,7.96,9.27,7.96s9.32-1.46,9.32-7.96v-23.23h5.14Z" fill="#1a1a18" stroke-width="0"/><path d="m98.36,78.75h-6.4c-5.54-9.73-9.48-14.31-11.94-14.31h-5.75v14.31h-5.09v-35.13h16.98c7.61,0,9.83,4.69,9.83,10.23,0,4.94-2.32,9.32-9.68,9.42,2.47.86,6.3,5.9,12.05,15.47Zm-24.09-18.65h10.89c3.33,0,5.14-2.17,5.14-5.9,0-4.08-1.76-6.25-4.94-6.25h-11.09v12.15Z" fill="#1a1a18" stroke-width="0"/><path d="m133.79,60.96c0,14.46-5.24,18.5-16.33,18.5s-16.33-4.03-16.33-18.5,5.29-18.19,16.33-18.19,16.33,3.88,16.33,18.19Zm-5.44.1c0-11.79-2.52-13.76-10.89-13.76s-10.79,1.97-10.79,13.76,2.47,13.81,10.79,13.81,10.89-2.42,10.89-13.81Z" fill="#1a1a18" stroke-width="0"/><path d="m295.47,78.75h-6.25c-5.14-9.53-10.94-19.35-17.04-28.98v28.98h-5.04v-35.13h6.8c5.7,8.67,11.29,18.25,16.38,27.52v-27.52h5.14v35.13Z" fill="#1a1a18" stroke-width="0"/><path d="m317.44,42.76c3.18,0,7.26.55,9.93,1.31l-1.26,4.59c-2.02-.76-5.49-1.21-8.06-1.21-8.27,0-11.34,1.61-11.34,13.46s3.07,13.81,11.34,13.81c2.57,0,6.05-.45,8.06-1.16l1.26,4.59c-2.72.81-6.75,1.31-9.93,1.31-11.04,0-16.28-4.28-16.28-18.6s5.24-18.09,16.28-18.09Z" fill="#1a1a18" stroke-width="0"/><path d="m354.13,68.97h-16.28c-1.11,3.33-2.17,6.6-3.18,9.78h-5.29c3.68-11.09,8.42-23.99,13-35.13h8.32c3.78,11.59,8.87,25.6,12.95,35.13h-5.75c-1.16-2.92-2.52-6.25-3.78-9.78Zm-8.52-21.12c-2.17,5.39-4.29,11.04-6.3,16.73h13.31c-2.02-5.54-3.93-11.39-5.6-16.73h-1.41Z" fill="#1a1a18" stroke-width="0"/><path d="m368.09,78.75v-35.13h16.99c7.61,0,9.88,5.29,9.88,11.74,0,5.75-2.67,11.14-9.68,11.14h-12.05v12.25h-5.14Zm16.03-16.63c3.48,0,5.19-2.57,5.19-6.8,0-4.74-1.71-7.36-4.99-7.36h-11.09v14.16h10.89Z" fill="#1a1a18" stroke-width="0"/><path d="m257.21,60.94c0,31.75-25.74,57.49-57.49,57.49s-57.49-25.74-57.49-57.49S167.97,3.46,199.72,3.46s57.49,25.74,57.49,57.49Z" fill="#fd0" stroke-width="0"/><path d="m199.72,1.36c-32.86,0-59.59,26.73-59.59,59.59s26.73,59.59,59.59,59.59,59.59-26.73,59.59-59.59S232.58,1.36,199.72,1.36Zm55.34,57.49h-53.24V5.61c28.87,1.08,52.15,24.36,53.24,53.23ZM197.62,5.61v20.03c-27.76,1.2-32.82,25.81-33.7,33.21h-19.53c1.08-28.87,24.36-52.15,53.23-53.23Zm-53.23,57.43h53.23v53.24c-28.87-1.08-52.15-24.36-53.23-53.24Zm57.43,53.24v-20.04c27.74-1.19,32.81-25.78,33.71-33.19h19.53c-1.08,28.87-24.36,52.15-53.24,53.24Z" stroke-width="0"/></svg>